<svg viewBox = "0 0 280 280" width="280" height="280" xmlns="http://www.w3.org/2000/svg"><g transform="matrix(1 0 0 1 140 140)"  ><g style=""   ><g transform="matrix(1 0 0 1 -20.3 71.97)"  ><path style="stroke: none; stroke-width: 1; stroke-dasharray: none; stroke-linecap: butt; stroke-dashoffset: 0; stroke-linejoin: miter; stroke-miterlimit: 4; fill: rgb(23,26,31); fill-rule: nonzero; opacity: 1;"  transform=" translate(-119.7, -211.97)" d="M 110.184 187.829 C 112.471 179.294 121.244 174.229 129.779 176.516 C 138.315 178.803 143.38 187.576 141.093 196.111 L 128.983 241.307 C 127.696 246.108 122.761 248.957 117.96 247.671 L 104.437 244.047 C 99.6363 242.761 96.787 237.826 98.0735 233.025 L 110.184 187.829 Z" stroke-linecap="round" /></g><g transform="matrix(1 0 0 1 53.38 52.78)"  ><path style="stroke: none; stroke-width: 1; stroke-dasharray: none; stroke-linecap: butt; stroke-dashoffset: 0; stroke-linejoin: miter; stroke-miterlimit: 4; fill: rgb(23,26,31); fill-rule: nonzero; opacity: 1;"  transform=" translate(-193.38, -192.78)" d="M 166.042 165.448 C 172.29 159.2 182.422 159.2 188.67 165.448 L 222.763 199.541 C 226.278 203.056 226.278 208.755 222.763 212.269 L 212.864 222.168 C 209.349 225.683 203.651 225.683 200.136 222.168 L 166.042 188.075 C 159.794 181.827 159.794 171.697 166.042 165.448 Z" stroke-linecap="round" /></g><g transform="matrix(1 0 0 1 -70.8 18.68)"  ><path style="stroke: none; stroke-width: 1; stroke-dasharray: none; stroke-linecap: butt; stroke-dashoffset: 0; stroke-linejoin: miter; stroke-miterlimit: 4; fill: rgb(23,26,31); fill-rule: nonzero; opacity: 1;"  transform=" translate(-69.2, -158.68)" d="M 86.5205 136.898 C 95.0559 134.611 103.829 139.677 106.116 148.212 C 108.403 156.747 103.338 165.521 94.8028 167.808 L 46.6934 180.699 C 41.8922 181.985 36.9571 179.136 35.6706 174.335 L 32.0472 160.812 C 30.7607 156.011 33.6099 151.076 38.4111 149.79 L 86.5205 136.898 Z" stroke-linecap="round" /></g><g transform="matrix(1 0 0 1 15.43 -57.05)"  ><path style="stroke: none; stroke-width: 1; stroke-dasharray: none; stroke-linecap: butt; stroke-dashoffset: 0; stroke-linejoin: miter; stroke-miterlimit: 4; fill: rgb(23,26,31); fill-rule: nonzero; opacity: 1;"  transform=" translate(-155.43, -82.95)" d="M 181.063 12.1707 C 185.864 13.4572 188.713 18.3922 187.427 23.1934 L 154.576 145.793 C 152.289 154.328 143.516 159.393 134.98 157.107 C 126.445 154.82 121.38 146.046 123.666 137.511 L 156.516 14.9112 C 157.803 10.11 162.738 7.26072 167.539 8.54717 L 181.063 12.1707 Z" stroke-linecap="round" /></g><g transform="matrix(1 0 0 1 72.33 -20.82)"  ><path style="stroke: none; stroke-width: 1; stroke-dasharray: none; stroke-linecap: butt; stroke-dashoffset: 0; stroke-linejoin: miter; stroke-miterlimit: 4; fill: rgb(23,26,31); fill-rule: nonzero; opacity: 1;"  transform=" translate(-212.33, -119.18)" d="M 249.171 117.128 C 250.457 121.929 247.608 126.864 242.807 128.151 L 195.316 140.875 C 186.781 143.162 178.008 138.097 175.721 129.562 C 173.434 121.026 178.499 112.253 187.034 109.966 L 234.525 97.2414 C 239.326 95.955 244.261 98.8042 245.547 103.605 L 249.171 117.128 Z" stroke-linecap="round" /></g><g transform="matrix(1 0 0 1 -63.52 -64.12)"  ><path style="stroke: none; stroke-width: 1; stroke-dasharray: none; stroke-linecap: butt; stroke-dashoffset: 0; stroke-linejoin: miter; stroke-miterlimit: 4; fill: rgb(23,26,31); fill-rule: nonzero; opacity: 1;"  transform=" translate(-76.48, -75.88)" d="M 114.943 91.7217 C 121.192 97.9701 121.192 108.1 114.943 114.349 C 108.695 120.597 98.5648 120.597 92.3164 114.349 L 35.9587 57.991 C 32.444 54.4763 32.444 48.7778 35.9587 45.2631 L 45.8577 35.364 C 49.3725 31.8493 55.0709 31.8493 58.5857 35.364 L 114.943 91.7217 Z" stroke-linecap="round" /></g></g></g></svg>