<svg class="w-6 h-6" width="24" height="24" viewBox="0 0 24 24" fill="none" xmlns="http://www.w3.org/2000/svg"><path d="M21 12C21 7.02944 16.9706 3 12 3C7.02944 3 3 7.02944 3 12C3 16.9706 7.02944 21 12 21C16.9706 21 21 16.9706 21 12ZM23 12C23 18.0751 18.0751 23 12 23C5.92487 23 1 18.0751 1 12C1 5.92487 5.92487 1 12 1C18.0751 1 23 5.92487 23 12Z" fill="#686583" style="fill-opacity:1;"/><path d="M9.52832 7.11819C9.85344 6.94429 10.2479 6.96346 10.5547 7.16799L16.5547 11.168C16.8329 11.3535 17 11.6657 17 12C17 12.3344 16.8329 12.6466 16.5547 12.8321L10.5547 16.8321C10.2479 17.0366 9.85344 17.0558 9.52832 16.8819C9.20316 16.7078 9 16.3688 9 16V8.00002L9.00977 7.8633C9.0531 7.54906 9.24385 7.27043 9.52832 7.11819ZM11 14.1309L14.1973 12L11 9.86819V14.1309Z" fill="#686583" style="fill-opacity:1;"/></svg>